<svg xmlns="http://www.w3.org/2000/svg" xmlns:xlink="http://www.w3.org/1999/xlink" viewBox="0 0 296.05 82.95"><defs><style>.cls-1,.cls-2,.cls-3,.cls-4,.cls-5,.cls-6,.cls-7{fill:none;stroke-linecap:round;stroke-linejoin:round;stroke-width:4px;}.cls-1{stroke:url(#linear-gradient);}.cls-2{stroke:url(#linear-gradient-2);}.cls-3{stroke:url(#linear-gradient-3);}.cls-4{stroke:url(#linear-gradient-4);}.cls-5{stroke:url(#linear-gradient-5);}.cls-6{stroke:url(#linear-gradient-6);}.cls-7{stroke:url(#linear-gradient-7);}</style><linearGradient id="linear-gradient" y1="41.47" x2="44.38" y2="41.47" gradientUnits="userSpaceOnUse"><stop offset="0" stop-color="#bf0020"/><stop offset="0.01" stop-color="#c40622"/><stop offset="0.09" stop-color="#da2129"/><stop offset="0.16" stop-color="#ea362f"/><stop offset="0.25" stop-color="#f64533"/><stop offset="0.35" stop-color="#fd4d35"/><stop offset="0.51" stop-color="#ff5036"/><stop offset="0.63" stop-color="#fc4e35"/><stop offset="0.72" stop-color="#f34931"/><stop offset="0.79" stop-color="#e33f2a"/><stop offset="0.86" stop-color="#ce3221"/><stop offset="0.92" stop-color="#b12115"/><stop offset="0.98" stop-color="#8f0d07"/><stop offset="1" stop-color="#7f0300"/></linearGradient><linearGradient id="linear-gradient-2" x1="249.45" y1="41.47" x2="296.05" y2="41.47" xlink:href="#linear-gradient"/><linearGradient id="linear-gradient-3" x1="53.84" y1="38.6" x2="87.73" y2="38.6" xlink:href="#linear-gradient"/><linearGradient id="linear-gradient-4" x1="143.74" y1="36.62" x2="177.4" y2="36.62" xlink:href="#linear-gradient"/><linearGradient id="linear-gradient-5" x1="95.83" y1="36.97" x2="135.42" y2="36.97" xlink:href="#linear-gradient"/><linearGradient id="linear-gradient-6" x1="185.73" y1="37.72" x2="219.33" y2="37.72" xlink:href="#linear-gradient"/><linearGradient id="linear-gradient-7" x1="227.46" y1="38.67" x2="243.8" y2="38.67" xlink:href="#linear-gradient"/></defs><title>netflix</title><g id="Layer_2" data-name="Layer 2"><g id="Layer_2-2" data-name="Layer 2"><path class="cls-1" d="M42.38,2c0,.49,0,1,0,1.48q0,35.75,0,71.49v1.5L28.77,77.91,14.2,36.54l-.26,0v43.1l-7.57,1a7.7,7.7,0,0,0-1,.26H2V2H14.54a4.42,4.42,0,0,0,.13.66Q22.33,24.45,30,46.23a8,8,0,0,0,.51.91V2Z"/><path class="cls-2" d="M290.86,80.95,284.94,80a5.42,5.42,0,0,0-1.35-.17c-2.16.23-2.9-1-3.53-2.86-2.27-6.84-4.75-13.61-7.14-20.4l-.43-1.21c-.26.55-.43.89-.58,1.24-2.65,6.54-5.32,13.07-7.92,19.63-.37.93-.74,1.23-1.79,1.1-3.35-.42-6.72-.69-10.08-1-.18,0-.36-.07-.66-.14.18-.5.32-.95.5-1.39q7.11-17.56,14.19-35.14a3,3,0,0,0,.11-1.93Q260.12,20.11,253.9,2.52c-.06-.18-.15-.35-.23-.52h12.55c.11.43.19.88.34,1.3q2.43,6.93,4.87,13.85l1.77,5c.26-.58.43-.91.57-1.25q2.88-7.12,5.75-14.24c.62-1.54,1.18-3.1,1.77-4.65,4,0,8,0,12,0a3.16,3.16,0,0,1,.8.22,9.66,9.66,0,0,0-.52,1q-7,17.34-14,34.7a3.17,3.17,0,0,0,0,2c2.19,6.38,4.46,12.74,6.7,19.11Q290,70,293.83,80.95Z"/><path class="cls-3" d="M85.73,2V13.41H68.45V32.94H83.32V44.31H68.44V62.78l17.09-1.09c0,.43.11.72.11,1,0,3.12,0,6.24,0,9.35,0,.85-.26,1.07-1.1,1.12-7.32.47-14.64,1-22,1.52-2.16.15-4.31.33-6.61.5,0-.51-.06-1-.06-1.46q0-35.08,0-70.16c0-.53-.06-1.06-.09-1.59Z"/><path class="cls-4" d="M175.4,2V13.41H174c-4.83,0-9.66,0-14.49,0-1,0-1.32.2-1.31,1.25q.08,8.55,0,17.11c0,.94.25,1.24,1.21,1.23,4.07,0,8.14,0,12.21,0H173V44.3H158.23V71.24H145.76V69.76q0-33.14,0-66.28c0-.49,0-1,0-1.48Z"/><path class="cls-5" d="M133.42,2V13.41h-4c-2.13,0-4.26,0-6.39,0-1,0-1.21.3-1.21,1.23,0,7.6,0,15.21,0,22.81q0,16.37,0,32.74v1.38l-12.34.4V70.39q0-27.72,0-55.43c0-1.54,0-1.54-1.54-1.54H97.83V2Z"/><path class="cls-6" d="M200.28,2c0,.38-.08.75-.08,1.13q0,28.35,0,56.7v1.27l17.14,1V73.44l-29.58-1.51V70.45q0-33.48,0-67c0-.49,0-1,0-1.48Z"/><path class="cls-7" d="M241.8,2V75.34l-12.26-1c0-.41-.08-.74-.08-1.07q0-35.46,0-70.91c0-.11,0-.23,0-.34Z"/></g></g></svg>